<svg xmlns="http://www.w3.org/2000/svg" xmlns:xlink="http://www.w3.org/1999/xlink" width="500" zoomAndPan="magnify" viewBox="0 0 375 374.999991" height="500" preserveAspectRatio="xMidYMid meet" version="1.0"><defs><g/><clipPath id="892b662232"><path d="M 70.148438 141.921875 L 154.855469 141.921875 L 154.855469 218.011719 L 70.148438 218.011719 Z M 70.148438 141.921875 " clip-rule="nonzero"/></clipPath><clipPath id="18a1f5a327"><path d="M 149.242188 218.011719 L 75.757812 218.011719 C 72.667969 218.011719 70.148438 215.492188 70.148438 212.402344 L 70.148438 147.535156 C 70.148438 144.445312 72.667969 141.921875 75.757812 141.921875 L 149.242188 141.921875 C 152.335938 141.921875 154.855469 144.445312 154.855469 147.535156 L 154.855469 212.402344 C 154.855469 215.492188 152.335938 218.011719 149.242188 218.011719 Z M 149.242188 218.011719 " clip-rule="nonzero"/></clipPath><clipPath id="68fe0bc6d6"><path d="M 70.148438 156.988281 L 154.855469 156.988281 L 154.855469 233.078125 L 70.148438 233.078125 Z M 70.148438 156.988281 " clip-rule="nonzero"/></clipPath><clipPath id="e13b9157c3"><path d="M 149.242188 233.078125 L 75.757812 233.078125 C 72.667969 233.078125 70.148438 230.554688 70.148438 227.464844 L 70.148438 162.597656 C 70.148438 159.507812 72.667969 156.988281 75.757812 156.988281 L 149.242188 156.988281 C 152.335938 156.988281 154.855469 159.507812 154.855469 162.597656 L 154.855469 227.464844 C 154.855469 230.554688 152.335938 233.078125 149.242188 233.078125 Z M 149.242188 233.078125 " clip-rule="nonzero"/></clipPath><clipPath id="1964a594fc"><path d="M 90.261719 163.824219 L 98.996094 163.824219 L 98.996094 172.5625 L 90.261719 172.5625 Z M 90.261719 163.824219 " clip-rule="nonzero"/></clipPath><clipPath id="00d09c1c9e"><path d="M 94.628906 163.824219 C 92.214844 163.824219 90.261719 165.78125 90.261719 168.191406 C 90.261719 170.605469 92.214844 172.5625 94.628906 172.5625 C 97.039062 172.5625 98.996094 170.605469 98.996094 168.191406 C 98.996094 165.78125 97.039062 163.824219 94.628906 163.824219 Z M 94.628906 163.824219 " clip-rule="nonzero"/></clipPath><clipPath id="d70f0d357a"><path d="M 126.003906 163.824219 L 134.742188 163.824219 L 134.742188 172.5625 L 126.003906 172.5625 Z M 126.003906 163.824219 " clip-rule="nonzero"/></clipPath><clipPath id="089fede223"><path d="M 130.371094 163.824219 C 127.960938 163.824219 126.003906 165.78125 126.003906 168.191406 C 126.003906 170.605469 127.960938 172.5625 130.371094 172.5625 C 132.785156 172.5625 134.742188 170.605469 134.742188 168.191406 C 134.742188 165.78125 132.785156 163.824219 130.371094 163.824219 Z M 130.371094 163.824219 " clip-rule="nonzero"/></clipPath><clipPath id="be1fa644d4"><path d="M 91.011719 178.871094 L 133.761719 178.871094 L 133.761719 200.621094 L 91.011719 200.621094 Z M 91.011719 178.871094 " clip-rule="nonzero"/></clipPath></defs><g clip-path="url(#892b662232)"><g clip-path="url(#18a1f5a327)"><path fill="#ffbd59" d="M 70.148438 141.921875 L 154.855469 141.921875 L 154.855469 218.011719 L 70.148438 218.011719 Z M 70.148438 141.921875 " fill-opacity="1" fill-rule="nonzero"/></g></g><g clip-path="url(#68fe0bc6d6)"><g clip-path="url(#e13b9157c3)"><path fill="#ff914d" d="M 70.148438 156.988281 L 154.855469 156.988281 L 154.855469 233.078125 L 70.148438 233.078125 Z M 70.148438 156.988281 " fill-opacity="1" fill-rule="nonzero"/></g></g><g clip-path="url(#1964a594fc)"><g clip-path="url(#00d09c1c9e)"><path fill="#ffde59" d="M 90.261719 163.824219 L 98.996094 163.824219 L 98.996094 172.5625 L 90.261719 172.5625 Z M 90.261719 163.824219 " fill-opacity="1" fill-rule="nonzero"/></g></g><g clip-path="url(#d70f0d357a)"><g clip-path="url(#089fede223)"><path fill="#ffde59" d="M 126.003906 163.824219 L 134.742188 163.824219 L 134.742188 172.5625 L 126.003906 172.5625 Z M 126.003906 163.824219 " fill-opacity="1" fill-rule="nonzero"/></g></g><g clip-path="url(#be1fa644d4)"><path fill="#fafafa" d="M 112.5 200.351562 C 111.277344 200.351562 110.066406 200.246094 108.863281 200.035156 C 107.660156 199.828125 106.480469 199.519531 105.332031 199.113281 C 104.179688 198.703125 103.070312 198.199219 102.003906 197.605469 C 100.9375 197.007812 99.933594 196.324219 98.984375 195.554688 C 98.03125 194.785156 97.15625 193.941406 96.351562 193.023438 C 95.542969 192.105469 94.820312 191.125 94.183594 190.085938 C 93.542969 189.042969 92.996094 187.957031 92.542969 186.824219 C 92.089844 185.6875 91.734375 184.523438 91.480469 183.328125 C 91.425781 183.058594 91.398438 182.785156 91.40625 182.511719 C 91.410156 182.234375 91.445312 181.960938 91.511719 181.695312 C 91.578125 181.425781 91.671875 181.167969 91.796875 180.921875 C 91.917969 180.675781 92.066406 180.445312 92.242188 180.234375 C 92.417969 180.019531 92.613281 179.828125 92.832031 179.65625 C 93.046875 179.488281 93.28125 179.34375 93.53125 179.226562 C 93.78125 179.109375 94.039062 179.019531 94.308594 178.960938 C 94.578125 178.898438 94.851562 178.871094 95.125 178.871094 C 95.554688 178.871094 95.96875 178.945312 96.371094 179.089844 C 96.769531 179.234375 97.136719 179.441406 97.46875 179.710938 C 97.796875 179.984375 98.074219 180.300781 98.296875 180.664062 C 98.515625 181.03125 98.671875 181.421875 98.757812 181.839844 C 98.925781 182.621094 99.160156 183.378906 99.460938 184.117188 C 99.757812 184.855469 100.117188 185.566406 100.535156 186.242188 C 100.953125 186.921875 101.425781 187.558594 101.953125 188.15625 C 102.480469 188.753906 103.054688 189.304688 103.675781 189.804688 C 104.296875 190.304688 104.953125 190.75 105.648438 191.136719 C 106.347656 191.527344 107.070312 191.851562 107.820312 192.117188 C 108.574219 192.382812 109.339844 192.585938 110.125 192.71875 C 110.910156 192.855469 111.703125 192.921875 112.5 192.921875 C 113.296875 192.921875 114.089844 192.855469 114.875 192.71875 C 115.660156 192.582031 116.425781 192.382812 117.175781 192.117188 C 117.929688 191.851562 118.652344 191.523438 119.347656 191.136719 C 120.042969 190.746094 120.699219 190.300781 121.320312 189.800781 C 121.941406 189.300781 122.515625 188.753906 123.042969 188.15625 C 123.566406 187.558594 124.039062 186.921875 124.460938 186.242188 C 124.878906 185.5625 125.234375 184.855469 125.535156 184.117188 C 125.832031 183.378906 126.066406 182.621094 126.234375 181.839844 C 126.324219 181.421875 126.476562 181.03125 126.699219 180.664062 C 126.917969 180.300781 127.195312 179.984375 127.523438 179.710938 C 127.855469 179.441406 128.222656 179.234375 128.625 179.089844 C 129.027344 178.945312 129.441406 178.871094 129.867188 178.871094 C 130.144531 178.871094 130.414062 178.898438 130.683594 178.960938 C 130.953125 179.019531 131.214844 179.109375 131.464844 179.226562 C 131.710938 179.34375 131.945312 179.488281 132.164062 179.65625 C 132.378906 179.828125 132.578125 180.019531 132.75 180.234375 C 132.925781 180.445312 133.074219 180.675781 133.199219 180.921875 C 133.320312 181.167969 133.417969 181.425781 133.480469 181.695312 C 133.546875 181.960938 133.582031 182.234375 133.589844 182.511719 C 133.59375 182.785156 133.570312 183.058594 133.511719 183.328125 C 133.257812 184.523438 132.902344 185.6875 132.449219 186.820312 C 131.996094 187.957031 131.453125 189.042969 130.8125 190.085938 C 130.175781 191.125 129.453125 192.105469 128.648438 193.023438 C 127.839844 193.941406 126.964844 194.785156 126.015625 195.554688 C 125.066406 196.324219 124.058594 197.007812 122.992188 197.601562 C 121.929688 198.199219 120.820312 198.703125 119.667969 199.113281 C 118.519531 199.519531 117.339844 199.828125 116.136719 200.035156 C 114.933594 200.246094 113.722656 200.351562 112.5 200.351562 Z M 112.5 200.351562 " fill-opacity="1" fill-rule="nonzero"/></g><g fill="#ff914d" fill-opacity="1"><g transform="translate(178.499993, 177.727732)"><g><path d="M 36.035156 -29.058594 L 30.429688 -9.757812 L 22.625 -28.726562 L 20.507812 -28.726562 L 12.871094 -9.714844 L 7.140625 -29.058594 L 0.5 -29.058594 L 9.632812 0 L 15.234375 0 L 21.546875 -16.273438 L 28.023438 0 L 33.625 0 L 42.59375 -29.058594 Z M 36.035156 -29.058594 "/></g></g></g><g fill="#ff914d" fill-opacity="1"><g transform="translate(221.712638, 177.727732)"><g><path d="M 24.660156 -11.25 C 24.660156 -17.726562 19.925781 -23.039062 13.035156 -23.039062 C 6.394531 -23.039062 1.410156 -17.933594 1.410156 -11.207031 C 1.410156 -4.484375 6.433594 0.664062 13.035156 0.664062 C 18.265625 0.664062 22.542969 -2.449219 24.160156 -7.347656 L 17.808594 -7.347656 C 16.894531 -5.730469 15.152344 -4.734375 13.035156 -4.734375 C 10.089844 -4.734375 8.09375 -6.433594 7.554688 -9.507812 L 24.535156 -9.507812 C 24.617188 -10.089844 24.660156 -10.667969 24.660156 -11.25 Z M 13.035156 -17.851562 C 15.777344 -17.851562 17.726562 -16.355469 18.597656 -13.617188 L 7.722656 -13.617188 C 8.425781 -16.273438 10.335938 -17.851562 13.035156 -17.851562 Z M 13.035156 -17.851562 "/></g></g></g><g fill="#ff914d" fill-opacity="1"><g transform="translate(178.499993, 226.597941)"><g><path d="M 12.953125 0.582031 C 18.972656 0.582031 23.953125 -2.449219 23.953125 -8.71875 C 23.953125 -15.234375 18.390625 -16.605469 13.992188 -17.726562 C 10.875 -18.472656 8.386719 -19.097656 8.386719 -21.128906 C 8.386719 -23.039062 10.421875 -23.914062 12.453125 -23.914062 C 14.820312 -23.914062 16.894531 -22.75 16.894531 -20.21875 L 23.082031 -20.21875 C 23.082031 -26.03125 19.304688 -29.601562 12.621094 -29.601562 C 6.1875 -29.601562 2.074219 -26.445312 2.074219 -20.882812 C 2.074219 -14.613281 7.390625 -13.324219 11.789062 -12.246094 C 14.945312 -11.539062 17.601562 -10.917969 17.601562 -8.636719 C 17.601562 -6.476562 15.277344 -5.230469 12.910156 -5.230469 C 10.335938 -5.230469 8.011719 -6.601562 8.011719 -9.382812 L 1.660156 -9.382812 C 1.660156 -3.15625 6.269531 0.582031 12.953125 0.582031 Z M 12.953125 0.582031 "/></g></g></g><g fill="#ff914d" fill-opacity="1"><g transform="translate(204.195125, 226.597941)"><g><path d="M 15.734375 -22.914062 C 13.035156 -22.914062 10.667969 -21.917969 8.96875 -20.300781 L 8.96875 -30.472656 L 2.90625 -30.472656 L 2.90625 0 L 8.96875 0 L 8.96875 -11.75 C 8.96875 -15.402344 10.960938 -17.601562 13.992188 -17.601562 C 16.6875 -17.601562 17.894531 -15.941406 17.894531 -12.578125 L 17.894531 0 L 23.953125 0 L 23.953125 -13.617188 C 23.953125 -19.304688 20.796875 -22.914062 15.734375 -22.914062 Z M 15.734375 -22.914062 "/></g></g></g><g fill="#ff914d" fill-opacity="1"><g transform="translate(230.803495, 226.597941)"><g><path d="M 13.535156 0.664062 C 20.464844 0.664062 25.65625 -4.441406 25.65625 -11.207031 C 25.65625 -17.976562 20.464844 -23.039062 13.535156 -23.039062 C 6.601562 -23.039062 1.410156 -17.976562 1.410156 -11.207031 C 1.410156 -4.441406 6.601562 0.664062 13.535156 0.664062 Z M 13.535156 -5.066406 C 10.046875 -5.066406 7.554688 -7.554688 7.554688 -11.207031 C 7.554688 -14.820312 10.046875 -17.351562 13.535156 -17.351562 C 17.019531 -17.351562 19.511719 -14.820312 19.511719 -11.207031 C 19.511719 -7.554688 17.019531 -5.066406 13.535156 -5.066406 Z M 13.535156 -5.066406 "/></g></g></g><g fill="#ff914d" fill-opacity="1"><g transform="translate(257.909993, 226.597941)"><g><path d="M 15.109375 -23.039062 C 12.328125 -23.039062 9.839844 -22.042969 7.929688 -20.34375 L 6.890625 -22.417969 L 2.90625 -22.417969 L 2.90625 8.09375 L 8.96875 8.09375 L 8.96875 -1.203125 C 10.667969 0 12.785156 0.707031 15.109375 0.707031 C 21.878906 0.707031 26.859375 -4.402344 26.859375 -11.207031 C 26.859375 -17.976562 21.878906 -23.039062 15.109375 -23.039062 Z M 14.613281 -5.066406 C 11.085938 -5.066406 8.511719 -7.679688 8.511719 -11.207031 C 8.511719 -14.695312 11.085938 -17.351562 14.613281 -17.351562 C 18.140625 -17.351562 20.714844 -14.695312 20.714844 -11.207031 C 20.714844 -7.679688 18.140625 -5.066406 14.613281 -5.066406 Z M 14.613281 -5.066406 "/></g></g></g></svg>